<?xml version="1.0" encoding="UTF-8"?>
<svg width="30px" height="30px" viewBox="0 0 30 30" version="1.1" xmlns="http://www.w3.org/2000/svg" xmlns:xlink="http://www.w3.org/1999/xlink">
    <!-- Generator: Sketch 60.1 (88133) - https://sketch.com -->
    <title>buy-icon-alipay</title>
    <desc>Created with Sketch.</desc>
    <g id="页面-1" stroke="none" stroke-width="1" fill="none" fill-rule="evenodd">
        <g id="Apple-TV" transform="translate(-447.000000, -382.000000)" fill="#06B4FD" fill-rule="nonzero">
            <g id="buy-icon-alipay" transform="translate(447.000000, 382.000000)">
                <path d="M8.4,16.512 C8.112,16.74 7.812,17.076 7.728,17.496 C7.608,18.072 7.704,18.792 8.256,19.368 C8.928,20.052 9.96,20.244 10.404,20.28 C11.604,20.364 12.888,19.764 13.86,19.092 C14.244,18.828 14.892,18.288 15.504,17.46 C14.112,16.74 12.372,15.948 10.524,16.02 C9.576,16.056 8.892,16.248 8.4,16.512 Z M26.04,19.692 C26.652,18.252 27,16.668 27,15 C27,8.388 21.612,3 15,3 C8.388,3 3,8.388 3,15 C3,21.612 8.388,27 15,27 C18.996,27 22.536,25.032 24.72,22.032 C22.656,21.012 19.26,19.32 17.16,18.3 C16.164,19.44 14.688,20.58 13.02,21.072 C11.976,21.384 11.028,21.504 10.044,21.3 C9.06,21.096 8.34,20.64 7.92,20.184 C7.704,19.944 7.464,19.656 7.284,19.296 C7.296,19.32 7.308,19.344 7.308,19.368 C7.308,19.368 7.2,19.188 7.128,18.912 C7.092,18.768 7.056,18.636 7.044,18.492 C7.032,18.396 7.032,18.288 7.044,18.192 C7.032,18.012 7.044,17.82 7.08,17.628 C7.176,17.148 7.38,16.596 7.908,16.092 C9.06,14.964 10.596,14.904 11.4,14.916 C12.576,14.928 14.64,15.444 16.368,16.056 C16.848,15.036 17.16,13.944 17.352,13.212 L10.152,13.212 L10.152,12.432 L13.848,12.432 L13.848,10.872 L9.384,10.872 L9.384,10.08 L13.848,10.08 L13.848,8.52 C13.848,8.304 13.896,8.136 14.232,8.136 L15.984,8.136 L15.984,10.08 L20.844,10.08 L20.844,10.86 L15.984,10.86 L15.984,12.42 L19.872,12.42 C19.872,12.42 19.476,14.592 18.264,16.74 C20.964,17.7 24.78,19.188 26.04,19.692 L26.04,19.692 Z" id="形状"></path>
            </g>
        </g>
    </g>
</svg>