<?xml version="1.0" encoding="UTF-8"?>
<svg width="95px" height="30px" viewBox="0 0 95 30" version="1.1" xmlns="http://www.w3.org/2000/svg" xmlns:xlink="http://www.w3.org/1999/xlink">
    <!-- Generator: Sketch 60.1 (88133) - https://sketch.com -->
    <title>buy-icon-wechat-black</title>
    <desc>Created with Sketch.</desc>
    <g id="页面-1" stroke="none" stroke-width="1" fill="none" fill-rule="evenodd">
        <g id="Apple-TV" transform="translate(-442.000000, -651.000000)" fill-rule="nonzero">
            <g id="buy-icon-wechat备份" transform="translate(442.000000, 651.000000)">
                <g id="编组-2" transform="translate(3.000000, 4.000000)" fill="#24DB5A">
                    <path d="M16.2037598,6.49639655 C16.4691732,6.49639655 16.7345866,6.49639655 17,6.54420812 C16.2498009,2.78502373 12.6179704,0 8.45531305,0 C3.80787,0 0,3.51713834 0,7.9128142 C0,10.4528037 1.24040147,12.6013359 3.36370878,14.2149763 L2.52142743,17 L5.48701609,15.3893479 C6.54866975,15.6343821 7.39095109,15.8764282 8.45260475,15.8764282 C8.71801816,15.8764282 8.98343158,15.8764282 9.29488609,15.8286166 C9.11884658,15.1921252 9.02947268,14.5586219 9.02947268,13.8743189 C9.03218098,9.8193004 12.1765174,6.49639655 16.2037598,6.49639655 Z M11.6429823,3.9564071 C12.3065159,3.9564071 12.704636,4.44348743 12.704636,5.12779047 C12.704636,5.81209351 12.263183,6.29917384 11.6429823,6.29917384 C10.9794488,6.29917384 10.359248,5.80910529 10.359248,5.12779047 C10.359248,4.39567587 11.0254899,3.9564071 11.6429823,3.9564071 L11.6429823,3.9564071 Z M5.78492911,6.14079803 C5.11597897,6.14079803 4.49036164,5.65670592 4.49036164,4.98136755 C4.49036164,4.25522939 5.15931177,3.82193707 5.78492911,3.82193707 C6.41054644,3.82193707 6.85471991,4.30602918 6.85471991,4.98136755 C6.85741596,5.65969415 6.41054644,6.14079803 5.78492911,6.14079803 Z" id="形状"></path>
                    <path d="M25,13.5515963 C25,9.92111226 21.4935065,7 17.5239977,7 C13.3229814,7 10,9.97013388 10,13.5515963 C10,17.1820803 13.3229814,20.1031926 17.5239977,20.1031926 C18.4020327,20.1031926 19.2772445,19.8667353 20.1552795,19.6331617 L22.5550536,21 L21.9085263,18.7363543 C23.661773,17.369516 25,15.5787848 25,13.5515963 L25,13.5515963 Z M15.0762281,12.4212152 C14.6612084,12.4212152 14.1981931,11.9973223 14.1981931,11.5244078 C14.1981931,11.1005149 14.6583851,10.6276004 15.0762281,10.6276004 C15.7227555,10.6276004 16.1829475,11.0976313 16.1829475,11.5244078 C16.1829475,11.9973223 15.7679277,12.4212152 15.0762281,12.4212152 Z M20.1016375,12.2020597 C19.6837945,12.2020597 19.217956,11.7810505 19.217956,11.3167868 C19.217956,10.8957775 19.6837945,10.4315139 20.1016375,10.4315139 C20.7538114,10.4315139 21.2168267,10.8986612 21.2168267,11.3167868 C21.2168267,11.7839341 20.7538114,12.2020597 20.1016375,12.2020597 Z" id="形状"></path>
                </g>
                <path d="M41.1171875,20 L43.546875,11.7109375 L43.7265625,10.84375 L43.90625,11.7109375 L46.25,20 L47.6171875,20 L50.375,8.625 L48.8671875,8.625 L47.1015625,16.40625 L46.859375,17.9375 L46.546875,16.5625 L44.3515625,8.625 L43.0859375,8.625 L40.8359375,16.5625 L40.515625,17.9140625 L40.296875,16.4140625 L38.5,8.625 L37,8.625 L39.75,20 L41.1171875,20 Z M55.078125,20.15625 C56.4947917,20.15625 57.5572917,19.6119792 58.265625,18.5234375 L58.265625,18.5234375 L57.3828125,17.8359375 C57.1171875,18.1796875 56.8072917,18.4557292 56.453125,18.6640625 C56.0989583,18.8723958 55.6666667,18.9765625 55.15625,18.9765625 C54.4375,18.9765625 53.8450521,18.7200521 53.3789062,18.2070312 C52.9127604,17.6940104 52.6692708,17.0208333 52.6484375,16.1875 L52.6484375,16.1875 L58.375,16.1875 L58.375,15.5859375 C58.375,14.2369792 58.0703125,13.2005208 57.4609375,12.4765625 C56.8515625,11.7526042 55.9973958,11.390625 54.8984375,11.390625 C54.2265625,11.390625 53.6028646,11.5768229 53.0273438,11.9492188 C52.4518229,12.3216146 52.0039062,12.8372396 51.6835938,13.4960938 C51.3632812,14.1549479 51.203125,14.9036458 51.203125,15.7421875 L51.203125,15.7421875 L51.203125,16.0078125 C51.203125,17.2682292 51.5625,18.2747396 52.28125,19.0273438 C53,19.7799479 53.9322917,20.15625 55.078125,20.15625 Z M56.9296875,15 L52.6953125,15 C52.7890625,14.234375 53.0338542,13.6393229 53.4296875,13.2148438 C53.8255208,12.7903646 54.3151042,12.578125 54.8984375,12.578125 C55.5026042,12.578125 55.9817708,12.7799479 56.3359375,13.1835938 C56.6901042,13.5872396 56.8880208,14.15625 56.9296875,14.890625 L56.9296875,14.890625 L56.9296875,15 Z M64.328125,20.15625 C65.5677083,20.15625 66.5611979,19.8294271 67.3085938,19.1757812 C68.0559896,18.5221354 68.5,17.59375 68.640625,16.390625 L68.640625,16.390625 L67.1328125,16.390625 C66.9869792,17.328125 66.6914062,17.9856771 66.2460938,18.3632812 C65.8007812,18.7408854 65.1614583,18.9296875 64.328125,18.9296875 C63.4010417,18.9296875 62.6796875,18.5651042 62.1640625,17.8359375 C61.6484375,17.1067708 61.390625,16.125 61.390625,14.890625 L61.390625,14.890625 L61.390625,13.7890625 C61.390625,12.4817708 61.6627604,11.4739583 62.2070312,10.765625 C62.7513021,10.0572917 63.5026042,9.703125 64.4609375,9.703125 C65.2421875,9.703125 65.8502604,9.90625 66.2851562,10.3125 C66.7200521,10.71875 67.0026042,11.375 67.1328125,12.28125 L67.1328125,12.28125 L68.640625,12.28125 C68.5208333,11.0885417 68.0963542,10.1549479 67.3671875,9.48046875 C66.6380208,8.80598958 65.6692708,8.46875 64.4609375,8.46875 C63.5494792,8.46875 62.7473958,8.68359375 62.0546875,9.11328125 C61.3619792,9.54296875 60.8268229,10.1588542 60.4492188,10.9609375 C60.0716146,11.7630208 59.8828125,12.6927083 59.8828125,13.75 L59.8828125,13.75 L59.8828125,14.84375 C59.8828125,16.4583333 60.2877604,17.7473958 61.0976562,18.7109375 C61.9075521,19.6744792 62.984375,20.15625 64.328125,20.15625 Z M71.90625,20 L71.90625,13.9765625 C72.1041667,13.5703125 72.3802083,13.2421875 72.734375,12.9921875 C73.0885417,12.7421875 73.5,12.6171875 73.96875,12.6171875 C74.546875,12.6171875 74.9726562,12.7630208 75.2460938,13.0546875 C75.5195312,13.3463542 75.6588542,13.796875 75.6640625,14.40625 L75.6640625,14.40625 L75.6640625,20 L77.109375,20 L77.109375,14.4140625 C77.09375,12.3984375 76.1927083,11.390625 74.40625,11.390625 C73.3802083,11.390625 72.546875,11.7838542 71.90625,12.5703125 L71.90625,12.5703125 L71.90625,8 L70.4609375,8 L70.4609375,20 L71.90625,20 Z M81.8828125,20.15625 C82.8151042,20.15625 83.6171875,19.8072917 84.2890625,19.109375 C84.3411458,19.5364583 84.4088542,19.8333333 84.4921875,20 L84.4921875,20 L86.0078125,20 L86.0078125,19.875 C85.8098958,19.4166667 85.7109375,18.7994792 85.7109375,18.0234375 L85.7109375,18.0234375 L85.7109375,14.1328125 C85.6901042,13.2786458 85.4036458,12.6080729 84.8515625,12.1210938 C84.2994792,11.6341146 83.5364583,11.390625 82.5625,11.390625 C81.9479167,11.390625 81.3841146,11.5052083 80.8710938,11.734375 C80.3580729,11.9635417 79.9518229,12.2747396 79.6523438,12.6679688 C79.3528646,13.0611979 79.203125,13.46875 79.203125,13.890625 L79.203125,13.890625 L80.65625,13.890625 C80.65625,13.5208333 80.8307292,13.2057292 81.1796875,12.9453125 C81.5286458,12.6848958 81.9609375,12.5546875 82.4765625,12.5546875 C83.0651042,12.5546875 83.5104167,12.7044271 83.8125,13.0039062 C84.1145833,13.3033854 84.265625,13.7057292 84.265625,14.2109375 L84.265625,14.2109375 L84.265625,14.875 L82.859375,14.875 C81.6458333,14.875 80.7044271,15.1184896 80.0351562,15.6054688 C79.3658854,16.0924479 79.03125,16.7760417 79.03125,17.65625 C79.03125,18.3802083 79.2981771,18.9778646 79.8320312,19.4492188 C80.3658854,19.9205729 81.0494792,20.15625 81.8828125,20.15625 Z M82.09375,18.8984375 C81.6197917,18.8984375 81.2317708,18.7708333 80.9296875,18.515625 C80.6276042,18.2604167 80.4765625,17.90625 80.4765625,17.453125 C80.4765625,16.4166667 81.3619792,15.8984375 83.1328125,15.8984375 L83.1328125,15.8984375 L84.265625,15.8984375 L84.265625,17.6328125 C84.0833333,18.0078125 83.7890625,18.3125 83.3828125,18.546875 C82.9765625,18.78125 82.546875,18.8984375 82.09375,18.8984375 Z M90.4453125,20.15625 C90.8046875,20.15625 91.1744792,20.1041667 91.5546875,20 L91.5546875,20 L91.5546875,18.828125 C91.2630208,18.890625 91.0338542,18.921875 90.8671875,18.921875 C90.5286458,18.921875 90.2890625,18.8372396 90.1484375,18.6679688 C90.0078125,18.4986979 89.9375,18.2447917 89.9375,17.90625 L89.9375,17.90625 L89.9375,12.6640625 L91.515625,12.6640625 L91.515625,11.546875 L89.9375,11.546875 L89.9375,9.5 L88.4921875,9.5 L88.4921875,11.546875 L86.953125,11.546875 L86.953125,12.6640625 L88.4921875,12.6640625 L88.4921875,17.90625 C88.4921875,18.625 88.65625,19.1796875 88.984375,19.5703125 C89.3125,19.9609375 89.7994792,20.15625 90.4453125,20.15625 Z" id="WeChat" fill="#333333"></path>
            </g>
        </g>
    </g>
</svg>