<?xml version="1.0" encoding="UTF-8"?>
<svg width="30px" height="30px" viewBox="0 0 30 30" version="1.1" xmlns="http://www.w3.org/2000/svg" xmlns:xlink="http://www.w3.org/1999/xlink">
    <!-- Generator: Sketch 60.1 (88133) - https://sketch.com -->
    <title>buy-icon-wechat</title>
    <desc>Created with Sketch.</desc>
    <g id="页面-1" stroke="none" stroke-width="1" fill="none" fill-rule="evenodd">
        <g id="Apple-TV" transform="translate(-607.000000, -383.000000)" fill="#24DB5A" fill-rule="nonzero">
            <g id="buy-icon-wechat" transform="translate(607.000000, 383.000000)">
                <path d="M19.2037598,10.4963966 C19.4691732,10.4963966 19.7345866,10.4963966 20,10.5442081 C19.2498009,6.78502373 15.6179704,4 11.455313,4 C6.80787,4 3,7.51713834 3,11.9128142 C3,14.4528037 4.24040147,16.6013359 6.36370878,18.2149763 L5.52142743,21 L8.48701609,19.3893479 C9.54866975,19.6343821 10.3909511,19.8764282 11.4526047,19.8764282 C11.7180182,19.8764282 11.9834316,19.8764282 12.2948861,19.8286166 C12.1188466,19.1921252 12.0294727,18.5586219 12.0294727,17.8743189 C12.032181,13.8193004 15.1765174,10.4963966 19.2037598,10.4963966 Z M14.6429823,7.9564071 C15.3065159,7.9564071 15.704636,8.44348743 15.704636,9.12779047 C15.704636,9.81209351 15.263183,10.2991738 14.6429823,10.2991738 C13.9794488,10.2991738 13.359248,9.80910529 13.359248,9.12779047 C13.359248,8.39567587 14.0254899,7.9564071 14.6429823,7.9564071 L14.6429823,7.9564071 Z M8.78492911,10.140798 C8.11597897,10.140798 7.49036164,9.65670592 7.49036164,8.98136755 C7.49036164,8.25522939 8.15931177,7.82193707 8.78492911,7.82193707 C9.41054644,7.82193707 9.85471991,8.30602918 9.85471991,8.98136755 C9.85741596,9.65969415 9.41054644,10.140798 8.78492911,10.140798 Z" id="形状"></path>
                <path d="M28,17.5515963 C28,13.9211123 24.4935065,11 20.5239977,11 C16.3229814,11 13,13.9701339 13,17.5515963 C13,21.1820803 16.3229814,24.1031926 20.5239977,24.1031926 C21.4020327,24.1031926 22.2772445,23.8667353 23.1552795,23.6331617 L25.5550536,25 L24.9085263,22.7363543 C26.661773,21.369516 28,19.5787848 28,17.5515963 L28,17.5515963 Z M18.0762281,16.4212152 C17.6612084,16.4212152 17.1981931,15.9973223 17.1981931,15.5244078 C17.1981931,15.1005149 17.6583851,14.6276004 18.0762281,14.6276004 C18.7227555,14.6276004 19.1829475,15.0976313 19.1829475,15.5244078 C19.1829475,15.9973223 18.7679277,16.4212152 18.0762281,16.4212152 Z M23.1016375,16.2020597 C22.6837945,16.2020597 22.217956,15.7810505 22.217956,15.3167868 C22.217956,14.8957775 22.6837945,14.4315139 23.1016375,14.4315139 C23.7538114,14.4315139 24.2168267,14.8986612 24.2168267,15.3167868 C24.2168267,15.7839341 23.7538114,16.2020597 23.1016375,16.2020597 Z" id="形状"></path>
            </g>
        </g>
    </g>
</svg>