<?xml version="1.0" encoding="UTF-8"?>
<svg width="96px" height="30px" viewBox="0 0 96 30" version="1.1" xmlns="http://www.w3.org/2000/svg" xmlns:xlink="http://www.w3.org/1999/xlink">
    <!-- Generator: Sketch 60.1 (88133) - https://sketch.com -->
    <title>buy-icon-alipay-black</title>
    <desc>Created with Sketch.</desc>
    <g id="页面-1" stroke="none" stroke-width="1" fill="none" fill-rule="evenodd">
        <g id="Apple-TV" transform="translate(-282.000000, -650.000000)" fill-rule="nonzero">
            <g id="buy-icon-alipay-black" transform="translate(282.000000, 650.000000)">
                <path d="M39.546875,20.375 L40.6171875,17.40625 L45.3828125,17.40625 L46.46875,20.375 L48.0078125,20.375 L43.65625,9 L42.34375,9 L38,20.375 L39.546875,20.375 Z M44.9375,16.171875 L41.0703125,16.171875 L43,10.8515625 L44.9375,16.171875 Z M56.4375,20.375 L56.4375,19.1484375 L51.046875,19.1484375 L51.046875,9 L49.5390625,9 L49.5390625,20.375 L56.4375,20.375 Z M59.7578125,20.375 L59.7578125,9 L58.2578125,9 L58.2578125,20.375 L59.7578125,20.375 Z M64,20.375 L64,15.921875 L66.6796875,15.921875 C67.9661458,15.921875 68.9544271,15.6236979 69.6445312,15.0273438 C70.3346354,14.4309896 70.6796875,13.5807292 70.6796875,12.4765625 C70.6796875,11.4296875 70.3268229,10.5885417 69.6210938,9.953125 C68.9153646,9.31770833 67.9401042,9 66.6953125,9 L66.6953125,9 L62.5,9 L62.5,20.375 L64,20.375 Z M66.6953125,14.6953125 L64,14.6953125 L64,10.234375 L66.78125,10.234375 C67.5260417,10.25 68.1119792,10.4609375 68.5390625,10.8671875 C68.9661458,11.2734375 69.1796875,11.8151042 69.1796875,12.4921875 C69.1796875,13.2057292 68.9661458,13.7513021 68.5390625,14.1289062 C68.1119792,14.5065104 67.4973958,14.6953125 66.6953125,14.6953125 L66.6953125,14.6953125 Z M71.9609375,20.375 L73.03125,17.40625 L77.796875,17.40625 L78.8828125,20.375 L80.421875,20.375 L76.0703125,9 L74.7578125,9 L70.4140625,20.375 L71.9609375,20.375 Z M77.3515625,16.171875 L73.484375,16.171875 L75.4140625,10.8515625 L77.3515625,16.171875 Z M85.4375,20.375 L85.4375,16.1328125 L89.359375,9 L87.65625,9 L84.6875,14.7109375 L81.734375,9 L80.015625,9 L83.9375,16.1328125 L83.9375,20.375 L85.4375,20.375 Z" id="ALIPAY" fill="#333333"></path>
                <path d="M8.4,16.512 C8.112,16.74 7.812,17.076 7.728,17.496 C7.608,18.072 7.704,18.792 8.256,19.368 C8.928,20.052 9.96,20.244 10.404,20.28 C11.604,20.364 12.888,19.764 13.86,19.092 C14.244,18.828 14.892,18.288 15.504,17.46 C14.112,16.74 12.372,15.948 10.524,16.02 C9.576,16.056 8.892,16.248 8.4,16.512 Z M26.04,19.692 C26.652,18.252 27,16.668 27,15 C27,8.388 21.612,3 15,3 C8.388,3 3,8.388 3,15 C3,21.612 8.388,27 15,27 C18.996,27 22.536,25.032 24.72,22.032 C22.656,21.012 19.26,19.32 17.16,18.3 C16.164,19.44 14.688,20.58 13.02,21.072 C11.976,21.384 11.028,21.504 10.044,21.3 C9.06,21.096 8.34,20.64 7.92,20.184 C7.704,19.944 7.464,19.656 7.284,19.296 C7.296,19.32 7.308,19.344 7.308,19.368 C7.308,19.368 7.2,19.188 7.128,18.912 C7.092,18.768 7.056,18.636 7.044,18.492 C7.032,18.396 7.032,18.288 7.044,18.192 C7.032,18.012 7.044,17.82 7.08,17.628 C7.176,17.148 7.38,16.596 7.908,16.092 C9.06,14.964 10.596,14.904 11.4,14.916 C12.576,14.928 14.64,15.444 16.368,16.056 C16.848,15.036 17.16,13.944 17.352,13.212 L10.152,13.212 L10.152,12.432 L13.848,12.432 L13.848,10.872 L9.384,10.872 L9.384,10.08 L13.848,10.08 L13.848,8.52 C13.848,8.304 13.896,8.136 14.232,8.136 L15.984,8.136 L15.984,10.08 L20.844,10.08 L20.844,10.86 L15.984,10.86 L15.984,12.42 L19.872,12.42 C19.872,12.42 19.476,14.592 18.264,16.74 C20.964,17.7 24.78,19.188 26.04,19.692 L26.04,19.692 Z" id="形状" fill="#06B4FD"></path>
            </g>
        </g>
    </g>
</svg>