<?xml version="1.0" encoding="UTF-8"?>
<svg width="96px" height="30px" viewBox="0 0 96 30" version="1.1" xmlns="http://www.w3.org/2000/svg" xmlns:xlink="http://www.w3.org/1999/xlink">
    <!-- Generator: Sketch 60.1 (88133) - https://sketch.com -->
    <title>buy-icon-card-black</title>
    <desc>Created with Sketch.</desc>
    <g id="页面-1" stroke="none" stroke-width="1" fill="none" fill-rule="evenodd">
        <g id="Apple-TV" transform="translate(-127.000000, -650.000000)" fill-rule="nonzero">
            <g id="buy-icon-card备份" transform="translate(127.000000, 650.000000)">
                <path d="M3,9.75 L3,11.3333333 L27.9997162,11.3333333 L27.9997162,9.75 L3,9.75 Z M16.7327012,18.1592593 L15.3262886,18.1592593 L13.8155915,21.0796296 L15.2570037,21.0796296 L16.7327012,18.1592593 Z M19.8576658,18.1592593 L18.4512532,18.1592593 L17.0105552,21.0796296 L18.4512532,21.0796296 L19.8576658,18.1592593 Z M25.691171,18.1592593 L21.5240754,18.1592593 L20.1348055,21.0796296 L24.2319018,21.0796296 L25.691171,18.1592593 Z M25.0654638,5 C25.8576587,5.01125775 26.6114219,5.33825773 27.1547258,5.90637038 C27.7074526,6.48358566 28.0104987,7.25004936 27.9997162,8.04351853 L27.9997162,20.9564815 C28.0106097,21.7501795 27.707561,22.5169021 27.1547258,23.0943333 C26.6113004,23.6621864 25.8575529,23.9889256 25.0654638,24 L5.96853772,24 C5.1764486,23.9889256 4.42270111,23.6621864 3.87927574,23.0943333 C3.32644051,22.5169021 3.02339181,21.7501795 3.03428532,20.9564815 L3.03428532,8.04351853 C2.99260547,6.41166524 4.29535313,5.05246488 5.95139507,5 L25.0654638,5 Z" id="形状" fill="#FD9B00"></path>
                <path d="M43.4453125,20.15625 C44.6848958,20.15625 45.6783854,19.8294271 46.4257812,19.1757812 C47.1731771,18.5221354 47.6171875,17.59375 47.7578125,16.390625 L47.7578125,16.390625 L46.25,16.390625 C46.1041667,17.328125 45.8085938,17.9856771 45.3632812,18.3632812 C44.9179688,18.7408854 44.2786458,18.9296875 43.4453125,18.9296875 C42.5182292,18.9296875 41.796875,18.5651042 41.28125,17.8359375 C40.765625,17.1067708 40.5078125,16.125 40.5078125,14.890625 L40.5078125,14.890625 L40.5078125,13.7890625 C40.5078125,12.4817708 40.7799479,11.4739583 41.3242188,10.765625 C41.8684896,10.0572917 42.6197917,9.703125 43.578125,9.703125 C44.359375,9.703125 44.9674479,9.90625 45.4023438,10.3125 C45.8372396,10.71875 46.1197917,11.375 46.25,12.28125 L46.25,12.28125 L47.7578125,12.28125 C47.6380208,11.0885417 47.2135417,10.1549479 46.484375,9.48046875 C45.7552083,8.80598958 44.7864583,8.46875 43.578125,8.46875 C42.6666667,8.46875 41.8645833,8.68359375 41.171875,9.11328125 C40.4791667,9.54296875 39.9440104,10.1588542 39.5664062,10.9609375 C39.1888021,11.7630208 39,12.6927083 39,13.75 L39,13.75 L39,14.84375 C39,16.4583333 39.4049479,17.7473958 40.2148438,18.7109375 C41.0247396,19.6744792 42.1015625,20.15625 43.4453125,20.15625 Z M52.1875,20.15625 C53.1197917,20.15625 53.921875,19.8072917 54.59375,19.109375 C54.6458333,19.5364583 54.7135417,19.8333333 54.796875,20 L54.796875,20 L56.3125,20 L56.3125,19.875 C56.1145833,19.4166667 56.015625,18.7994792 56.015625,18.0234375 L56.015625,18.0234375 L56.015625,14.1328125 C55.9947917,13.2786458 55.7083333,12.6080729 55.15625,12.1210938 C54.6041667,11.6341146 53.8411458,11.390625 52.8671875,11.390625 C52.2526042,11.390625 51.6888021,11.5052083 51.1757812,11.734375 C50.6627604,11.9635417 50.2565104,12.2747396 49.9570312,12.6679688 C49.6575521,13.0611979 49.5078125,13.46875 49.5078125,13.890625 L49.5078125,13.890625 L50.9609375,13.890625 C50.9609375,13.5208333 51.1354167,13.2057292 51.484375,12.9453125 C51.8333333,12.6848958 52.265625,12.5546875 52.78125,12.5546875 C53.3697917,12.5546875 53.8151042,12.7044271 54.1171875,13.0039062 C54.4192708,13.3033854 54.5703125,13.7057292 54.5703125,14.2109375 L54.5703125,14.2109375 L54.5703125,14.875 L53.1640625,14.875 C51.9505208,14.875 51.0091146,15.1184896 50.3398438,15.6054688 C49.6705729,16.0924479 49.3359375,16.7760417 49.3359375,17.65625 C49.3359375,18.3802083 49.6028646,18.9778646 50.1367188,19.4492188 C50.6705729,19.9205729 51.3541667,20.15625 52.1875,20.15625 Z M52.3984375,18.8984375 C51.9244792,18.8984375 51.5364583,18.7708333 51.234375,18.515625 C50.9322917,18.2604167 50.78125,17.90625 50.78125,17.453125 C50.78125,16.4166667 51.6666667,15.8984375 53.4375,15.8984375 L53.4375,15.8984375 L54.5703125,15.8984375 L54.5703125,17.6328125 C54.3880208,18.0078125 54.09375,18.3125 53.6875,18.546875 C53.28125,18.78125 52.8515625,18.8984375 52.3984375,18.8984375 Z M59.7265625,20 L59.7265625,14 C60.0651042,13.1927083 60.7083333,12.7890625 61.65625,12.7890625 C61.9114583,12.7890625 62.1484375,12.8072917 62.3671875,12.84375 L62.3671875,12.84375 L62.3671875,11.5 C62.2213542,11.4270833 62.0078125,11.390625 61.7265625,11.390625 C60.8567708,11.390625 60.1848958,11.7682292 59.7109375,12.5234375 L59.7109375,12.5234375 L59.6875,11.546875 L58.28125,11.546875 L58.28125,20 L59.7265625,20 Z M66.515625,20.15625 C67.546875,20.15625 68.3515625,19.8020833 68.9296875,19.09375 L68.9296875,19.09375 L69,20 L70.328125,20 L70.328125,8 L68.8828125,8 L68.8828125,12.40625 C68.3046875,11.7291667 67.5208333,11.390625 66.53125,11.390625 C65.5364583,11.390625 64.7317708,11.7851562 64.1171875,12.5742188 C63.5026042,13.3632812 63.1953125,14.40625 63.1953125,15.703125 L63.1953125,15.703125 L63.1953125,15.8125 C63.1953125,17.1041667 63.5039062,18.1510417 64.1210938,18.953125 C64.7382812,19.7552083 65.5364583,20.15625 66.515625,20.15625 Z M66.875,18.9296875 C66.1770833,18.9296875 65.6302083,18.6588542 65.234375,18.1171875 C64.8385417,17.5755208 64.640625,16.8255208 64.640625,15.8671875 C64.640625,14.7942708 64.8385417,13.984375 65.234375,13.4375 C65.6302083,12.890625 66.1822917,12.6171875 66.890625,12.6171875 C67.7864583,12.6171875 68.4505208,13.015625 68.8828125,13.8125 L68.8828125,13.8125 L68.8828125,17.6953125 C68.4609375,18.5182292 67.7916667,18.9296875 66.875,18.9296875 Z" id="Card" fill="#333333"></path>
            </g>
        </g>
    </g>
</svg>