<?xml version="1.0" encoding="UTF-8"?>
<svg width="19px" height="21px" viewBox="0 0 19 21" version="1.1" xmlns="http://www.w3.org/2000/svg" xmlns:xlink="http://www.w3.org/1999/xlink">
    <!-- Generator: Sketch 60.1 (88133) - https://sketch.com -->
    <title>buy-icon-notes</title>
    <desc>Created with Sketch.</desc>
    <g id="页面-1" stroke="none" stroke-width="1" fill="none" fill-rule="evenodd">
        <g id="Apple-TV" transform="translate(-1124.000000, -148.000000)" fill="#C7C8C9" fill-rule="nonzero">
            <g id="buy-icon-notes" transform="translate(1124.000000, 148.000000)">
                <path d="M12.4045123,3.96911701 C12.0015815,3.96911701 11.6753994,3.67333623 11.6753994,3.30795998 L11.6753994,0.661157025 C11.6753994,0.295780774 12.0015815,0 12.4045123,0 C12.8074431,0 13.1336383,0.295780774 13.1336383,0.661157025 L13.1336383,3.30795998 C13.1360236,3.67333623 12.8098415,3.96911701 12.4045123,3.96911701 Z M5.59785996,3.96911701 C5.19492916,3.96911701 4.86874709,3.67333623 4.86874709,3.30795998 L4.86874709,0.661157025 C4.86874709,0.295780774 5.19492916,0 5.59785996,0 C6.00079075,0 6.32697282,0.295780774 6.32697282,0.661157025 L6.32697282,3.30795998 C6.32697282,3.67333623 5.99839235,3.96911701 5.59785996,3.96911701 Z M17.2732594,6.61809482 L0.729112865,6.61809482 C0.326182071,6.61809482 0,6.32231405 0,5.9569378 C0,5.59156155 0.326182071,5.29578077 0.729112865,5.29578077 L17.270861,5.29578077 C17.6737918,5.29578077 17.999987,5.59156155 17.999987,5.9569378 C18.0023723,6.31796433 17.6761902,6.61809482 17.2732594,6.61809482 Z M12.4045123,15 L5.59785996,15 C5.19492916,15 4.86874709,14.7042192 4.86874709,14.338843 C4.86874709,13.9734667 5.19492916,13.677686 5.59785996,13.677686 L12.4069107,13.677686 C12.8098415,13.677686 13.1360236,13.9734667 13.1360236,14.338843 C13.1360236,14.7042192 12.8098415,15 12.4045123,15 Z M12.4045123,11.0287081 L5.59785996,11.0287081 C5.19492916,11.0287081 4.86874709,10.7329274 4.86874709,10.3675511 C4.86874709,10.0021749 5.19492916,9.70639408 5.59785996,9.70639408 L12.4069107,9.70639408 C12.8098415,9.70639408 13.1360236,10.0021749 13.1360236,10.3675511 C13.1360236,10.7329274 12.8098415,11.0287081 12.4045123,11.0287081 Z" id="形状"></path>
                <path d="M17.2923777,21 L1.70522058,21 C0.763746682,21 0,20.2712517 0,19.3780209 L0,3.62197908 C0,2.72646387 0.766148401,2 1.70522058,2 L17.2947794,2 C18.2362533,2 19,2.72874835 19,3.62197908 L19,19.3780209 C18.9975983,20.2712517 18.2338516,21 17.2923777,21 Z M1.70522058,3.39124684 C1.57072431,3.39124684 1.46264695,3.49404833 1.46264695,3.62197908 L1.46264695,19.3780209 C1.46264695,19.5059517 1.57072431,19.6087532 1.70522058,19.6087532 L17.2947794,19.6087532 C17.4292757,19.6087532 17.5373531,19.5059517 17.5373531,19.3780209 L17.5373531,3.62197908 C17.5373531,3.49404833 17.4292757,3.39124684 17.2947794,3.39124684 L1.70522058,3.39124684 Z" id="形状"></path>
            </g>
        </g>
    </g>
</svg>