<?xml version="1.0" encoding="UTF-8"?>
<svg width="30px" height="30px" viewBox="0 0 30 30" version="1.1" xmlns="http://www.w3.org/2000/svg" xmlns:xlink="http://www.w3.org/1999/xlink">
    <!-- Generator: Sketch 60.1 (88133) - https://sketch.com -->
    <title>buy-icon-card</title>
    <desc>Created with Sketch.</desc>
    <g id="页面-1" stroke="none" stroke-width="1" fill="none" fill-rule="evenodd">
        <g id="Apple-TV" transform="translate(-292.000000, -382.000000)" fill="#FD9B00" fill-rule="nonzero">
            <g id="buy-icon-card" transform="translate(292.000000, 382.000000)">
                <path d="M3,9.75 L3,11.3333333 L27.9997162,11.3333333 L27.9997162,9.75 L3,9.75 Z M16.7327012,18.1592593 L15.3262886,18.1592593 L13.8155915,21.0796296 L15.2570037,21.0796296 L16.7327012,18.1592593 Z M19.8576658,18.1592593 L18.4512532,18.1592593 L17.0105552,21.0796296 L18.4512532,21.0796296 L19.8576658,18.1592593 Z M25.691171,18.1592593 L21.5240754,18.1592593 L20.1348055,21.0796296 L24.2319018,21.0796296 L25.691171,18.1592593 Z M25.0654638,5 C25.8576587,5.01125775 26.6114219,5.33825773 27.1547258,5.90637038 C27.7074526,6.48358566 28.0104987,7.25004936 27.9997162,8.04351853 L27.9997162,20.9564815 C28.0106097,21.7501795 27.707561,22.5169021 27.1547258,23.0943333 C26.6113004,23.6621864 25.8575529,23.9889256 25.0654638,24 L5.96853772,24 C5.1764486,23.9889256 4.42270111,23.6621864 3.87927574,23.0943333 C3.32644051,22.5169021 3.02339181,21.7501795 3.03428532,20.9564815 L3.03428532,8.04351853 C2.99260547,6.41166524 4.29535313,5.05246488 5.95139507,5 L25.0654638,5 Z" id="形状"></path>
            </g>
        </g>
    </g>
</svg>