<?xml version="1.0" encoding="UTF-8"?>
<svg width="32px" height="32px" viewBox="0 0 32 32" version="1.1" xmlns="http://www.w3.org/2000/svg" xmlns:xlink="http://www.w3.org/1999/xlink">
    <!-- Generator: Sketch 55.2 (78181) - https://sketchapp.com -->
    <title>close_icon</title>
    <desc>Created with Sketch.</desc>
    <g id="页面1" stroke="none" stroke-width="1" fill="none" fill-rule="evenodd">
        <g id="法币交易/购买/待付款支付宝弹框" transform="translate(-173.000000, -496.000000)">
            <g id="close_icon" transform="translate(173.000000, 496.000000)">
                <circle id="椭圆形" fill="#FFFFFF" cx="16" cy="16" r="16"></circle>
                <g id="编组" transform="translate(10.000000, 10.000000)" fill="#333333" fill-rule="nonzero">
                    <path d="M11.7418599,10.4997433 L7.20850423,5.86756402 L11.4820457,1.49957224 C11.8275718,1.14640963 11.8275718,0.616665716 11.4820457,0.264871956 C11.1365196,-0.0869218046 10.6182305,-0.0882906519 10.2740437,0.264871956 L6.00050222,4.63286374 L1.72696074,0.264871956 C1.38143467,-0.0882906519 0.86314556,-0.0882906519 0.518958734,0.264871956 C0.174771909,0.618034563 0.173432661,1.14777847 0.518958734,1.49957224 L4.80991044,5.84976901 L0.259144555,10.4997433 C-0.0863815184,10.8529059 -0.0863815184,11.3826499 0.259144555,11.7344436 C0.431907592,11.9110249 0.604670629,11.9986312 0.86314556,11.9986312 C1.12162049,11.9986312 1.29438353,11.9110249 1.46714656,11.7344436 L6.02326944,7.07762505 L10.6195698,11.7358125 C10.7923328,11.9123938 10.9650958,12 11.2235708,12 C11.4820457,12 11.6548087,11.9123938 11.7418599,11.7358125 C12.0860467,11.3826499 12.0860467,10.8529059 11.7418599,10.4997433 Z" id="路径"></path>
                </g>
            </g>
        </g>
    </g>
</svg>