<?xml version="1.0" encoding="UTF-8"?>
<svg width="11px" height="11px" viewBox="0 0 11 11" version="1.1" xmlns="http://www.w3.org/2000/svg" xmlns:xlink="http://www.w3.org/1999/xlink">
    <!-- Generator: Sketch 55.2 (78181) - https://sketchapp.com -->
    <title>copy_icon</title>
    <desc>Created with Sketch.</desc>
    <g id="页面1" stroke="none" stroke-width="1" fill="none" fill-rule="evenodd">
        <g id="我的资产/订单/法币交易详情/取消" transform="translate(-189.000000, -99.000000)" fill="#C7C7C7" fill-rule="nonzero">
            <g id="copy_icon" transform="translate(189.000000, 99.000000)">
                <path d="M8.64216973,0.980375 L8.64216973,1.9635 L7.85576803,1.9635 L7.85576803,0.980375 C7.85576803,0.928125 7.83652043,0.88 7.79802525,0.842875 C7.75953006,0.804375 7.7127859,0.785125 7.66054243,0.785125 L0.981627297,0.785125 C0.929383827,0.785125 0.881264842,0.804375 0.844144482,0.842875 C0.807024122,0.881375 0.7864017,0.928125 0.7864017,0.980375 L0.7864017,7.6615 C0.7864017,7.71375 0.805649294,7.761875 0.844144482,7.799 C0.88263967,7.8375 0.929383827,7.85675 0.981627297,7.85675 L1.96462942,7.85675 L1.96462942,8.64325 L0.981627297,8.64325 C0.71216098,8.64325 0.479815023,8.547 0.288713911,8.355875 C0.0962379703,8.163375 0,7.931 0,7.6615 L0,0.980375 C0,0.710875 0.0962379703,0.4785 0.287339083,0.287375 C0.478440195,0.09625 0.710786152,0 0.980252468,0 L7.66054243,0 C7.93000875,0 8.16235471,0.097625 8.35345582,0.287375 C8.54593176,0.479875 8.64216973,0.710875 8.64216973,0.980375 Z M11,3.3385 L11,10.019625 C11,10.289125 10.9023872,10.5215 10.7126609,10.712625 C10.520185,10.905125 10.2892138,11 10.0197475,11 L3.33945757,11 C3.06999125,11 2.83764529,10.902375 2.64654418,10.712625 C2.45406824,10.520125 2.3592051,10.289125 2.3592051,10.019625 L2.3592051,3.3385 C2.3592051,3.069 2.45544307,2.836625 2.64654418,2.6455 C2.83764529,2.454375 3.06999125,2.358125 3.33945757,2.358125 L10.0197475,2.358125 C10.2892138,2.358125 10.5215598,2.45575 10.7126609,2.6455 C10.903762,2.838 11,3.069 11,3.3385 L11,3.3385 Z" id="形状"></path>
            </g>
        </g>
    </g>
</svg>