<?xml version="1.0" encoding="UTF-8"?>
<svg xmlns="http://www.w3.org/2000/svg" xmlns:xlink="http://www.w3.org/1999/xlink" width="174px" height="28px" viewBox="0 0 174 28" version="1.1">
  <title>bitmex_logo</title>
  <g id="Page-1" stroke="none" stroke-width="1" fill="none" fill-rule="evenodd">
    <g id="Desktop-HD-Copy-2" transform="translate(-100.000000, -56.000000)" fill-rule="nonzero">
      <g id="bitmex" transform="translate(100.000000, 56.000000)">
        <g id="Group">
          <polygon id="Path" fill="#FF0504" points="13.5167382 0.261333333 6.72103004 0.261333333 0 27.328 6.7583691 27.328 10.9776824 10.3786667 17.7360515 10.3786667 20.2751073 0.261333333"/>
          <polygon id="Path" fill="#125BFF" points="27.0334764 0.261333333 24.4944206 10.3786667 22.8141631 17.1733333 16.055794 17.1733333 13.5167382 27.328 20.2751073 27.328 27.0708155 27.328 31.2901288 10.3786667 33.7918455 0.261333333"/>
        </g>
        <path d="M70.3467811,1.86666667 C70.3467811,2.42666667 70.1600858,2.83733333 69.7493562,3.21066667 C69.3759657,3.54666667 68.927897,3.73333333 68.4798283,3.73333333 C68.0317597,3.73333333 67.583691,3.54666667 67.2103004,3.21066667 C66.8369099,2.87466667 66.6128755,2.42666667 66.6128755,1.86666667 C66.6128755,1.30666667 66.7995708,0.896 67.2103004,0.522666667 C67.583691,0.186666667 68.0317597,0 68.4798283,0 C68.927897,0 69.3759657,0.186666667 69.7493562,0.522666667 C70.1600858,0.896 70.3467811,1.344 70.3467811,1.86666667 Z M40.5875536,0.224 L51.7892704,0.224 C54.888412,0.224 57.3154506,1.12 58.883691,2.61333333 C60.0038627,3.77066667 60.6386266,5.18933333 60.6386266,6.944 L60.6386266,7.01866667 C60.6386266,10.528 58.4729614,12.3573333 56.3446352,13.2906667 C59.555794,14.2613333 62.1321888,16.128 62.1321888,19.824 L62.1321888,19.8986667 C62.1321888,24.528 58.211588,27.2906667 52.3120172,27.2906667 L40.6248927,27.2906667 L40.5875536,0.224 L40.5875536,0.224 Z M51.2665236,12.32 C54.9257511,12.32 57.5021459,10.64 57.5021459,7.46666667 L57.5021459,7.392 C57.5021459,4.704 55.3738197,2.98666667 51.4905579,2.98666667 L43.6120172,2.98666667 L43.6120172,12.32 L51.2665236,12.32 Z M52.3493562,24.5653333 C56.4566524,24.5653333 58.9957082,22.736 58.9957082,19.712 L58.9957082,19.6373333 C58.9957082,16.688 56.5313305,15.008 51.7892704,15.008 L43.5746781,15.008 L43.5746781,24.5653333 L52.3493562,24.5653333 Z M66.9862661,7.31733333 L69.9733906,7.31733333 L69.9733906,27.328 L66.9862661,27.328 L66.9862661,7.31733333 Z M77.8892704,20.9813333 L77.8892704,9.968 L73.3712446,9.968 L73.3712446,7.35466667 L77.8892704,7.35466667 L77.8892704,0.261333333 L80.8763948,0.261333333 L80.8763948,7.35466667 L89.0909871,7.35466667 L89.0909871,9.968 L80.8763948,9.968 L80.8763948,20.608 C80.8763948,23.296 82.1459227,25.0133333 84.5729614,24.976 C86.2532189,24.9386667 87.5974249,24.7893333 88.8296137,24.2666667 L88.8296137,26.8053333 C87.7841202,27.3653333 85.8798283,27.7013333 83.8635193,27.664 C80.2416309,27.5893333 77.8892704,25.0506667 77.8892704,20.9813333 Z M93.3849785,0.224 L99.8072961,0.224 L106.939056,11.6853333 L114.070815,0.224 L120.493133,0.224 L120.493133,27.2906667 L114.556223,27.2906667 L114.556223,9.632 L106.939056,21.2053333 L106.7897,21.2053333 L99.2098712,9.744 L99.2098712,27.2906667 L93.3849785,27.2906667 L93.3849785,0.224 Z M125.75794,0.224 L146.182403,0.224 L146.182403,5.52533333 L131.657511,5.52533333 L131.657511,11.0133333 L143.755365,11.0133333 L143.755365,16.3146667 L131.69485,16.3146667 L131.69485,21.9893333 L146.406438,21.9893333 L146.406438,27.2906667 L125.795279,27.2906667 L125.795279,0.224 L125.75794,0.224 Z M157.533476,13.552 L148.497425,0.261333333 L155.479828,0.261333333 L161.155365,9.03466667 L166.86824,0.261333333 L173.626609,0.261333333 L164.590558,13.4773333 L174,27.328 L167.017597,27.328 L160.93133,18.032 L154.807725,27.328 L148.049356,27.328 L157.533476,13.552 Z" id="Shape" fill="#FFFFFF"/>
      </g>
    </g>
  </g>
</svg>
